<mxfile host="app.diagrams.net" modified="2023-11-10T07:25:48.809Z" agent="Mozilla/5.0 (Windows NT 10.0; Win64; x64) AppleWebKit/537.36 (KHTML, like Gecko) Chrome/116.0.5845.837 YaBrowser/23.9.0.0 Safari/537.36" etag="cq3cgNifkKqVIvgAYkTn" version="22.1.0" type="device">
  <diagram name="Страница — 1" id="8bAW186KEDSZl3WSFMGd">
    <mxGraphModel dx="2213" dy="791" grid="1" gridSize="10" guides="1" tooltips="1" connect="1" arrows="1" fold="1" page="1" pageScale="1" pageWidth="827" pageHeight="1169" math="0" shadow="0">
      <root>
        <mxCell id="0" />
        <mxCell id="1" parent="0" />
        <mxCell id="fyEiF3MmVAeKFcar93-F-1" value="Курсы по обучению программированию&lt;br&gt;" style="rounded=0;whiteSpace=wrap;html=1;" parent="1" vertex="1">
          <mxGeometry x="340" y="40" width="120" height="60" as="geometry" />
        </mxCell>
        <mxCell id="fyEiF3MmVAeKFcar93-F-2" value="Языки&lt;br&gt;" style="rounded=0;whiteSpace=wrap;html=1;" parent="1" vertex="1">
          <mxGeometry x="1450" y="170" width="120" height="60" as="geometry" />
        </mxCell>
        <mxCell id="fyEiF3MmVAeKFcar93-F-5" value="Направление&lt;br&gt;" style="rounded=0;whiteSpace=wrap;html=1;" parent="1" vertex="1">
          <mxGeometry x="1580" y="170" width="120" height="60" as="geometry" />
        </mxCell>
        <mxCell id="fyEiF3MmVAeKFcar93-F-6" value="Студенты&lt;br&gt;" style="rounded=0;whiteSpace=wrap;html=1;" parent="1" vertex="1">
          <mxGeometry x="1450" y="376" width="120" height="60" as="geometry" />
        </mxCell>
        <mxCell id="fyEiF3MmVAeKFcar93-F-7" value="Время&lt;br&gt;" style="rounded=0;whiteSpace=wrap;html=1;" parent="1" vertex="1">
          <mxGeometry x="1450" y="450" width="120" height="60" as="geometry" />
        </mxCell>
        <mxCell id="fyEiF3MmVAeKFcar93-F-10" value="Преподаватели&lt;br&gt;" style="rounded=0;whiteSpace=wrap;html=1;" parent="1" vertex="1">
          <mxGeometry x="1450" y="240" width="120" height="60" as="geometry" />
        </mxCell>
        <mxCell id="fyEiF3MmVAeKFcar93-F-11" value="Уровень знания&lt;br&gt;" style="rounded=0;whiteSpace=wrap;html=1;" parent="1" vertex="1">
          <mxGeometry x="1580" y="240" width="120" height="60" as="geometry" />
        </mxCell>
        <mxCell id="fyEiF3MmVAeKFcar93-F-12" value="Формат обучения&lt;br&gt;" style="rounded=0;whiteSpace=wrap;html=1;" parent="1" vertex="1">
          <mxGeometry x="1450" y="310" width="120" height="60" as="geometry" />
        </mxCell>
        <mxCell id="fyEiF3MmVAeKFcar93-F-16" value="Группы&lt;br&gt;" style="rounded=0;whiteSpace=wrap;html=1;" parent="1" vertex="1">
          <mxGeometry x="1580" y="310" width="120" height="60" as="geometry" />
        </mxCell>
        <mxCell id="fyEiF3MmVAeKFcar93-F-17" value="Студенты" style="swimlane;fontStyle=0;childLayout=stackLayout;horizontal=1;startSize=26;horizontalStack=0;resizeParent=1;resizeParentMax=0;resizeLast=0;collapsible=1;marginBottom=0;align=center;fontSize=14;" parent="1" vertex="1">
          <mxGeometry x="-140" y="250" width="160" height="176" as="geometry" />
        </mxCell>
        <mxCell id="fyEiF3MmVAeKFcar93-F-18" value="id" style="text;strokeColor=none;fillColor=none;spacingLeft=4;spacingRight=4;overflow=hidden;rotatable=0;points=[[0,0.5],[1,0.5]];portConstraint=eastwest;fontSize=12;whiteSpace=wrap;html=1;" parent="fyEiF3MmVAeKFcar93-F-17" vertex="1">
          <mxGeometry y="26" width="160" height="30" as="geometry" />
        </mxCell>
        <mxCell id="fyEiF3MmVAeKFcar93-F-22" value="ФИО" style="text;strokeColor=none;fillColor=none;spacingLeft=4;spacingRight=4;overflow=hidden;rotatable=0;points=[[0,0.5],[1,0.5]];portConstraint=eastwest;fontSize=12;whiteSpace=wrap;html=1;" parent="fyEiF3MmVAeKFcar93-F-17" vertex="1">
          <mxGeometry y="56" width="160" height="30" as="geometry" />
        </mxCell>
        <mxCell id="fyEiF3MmVAeKFcar93-F-19" value="День рождение" style="text;strokeColor=none;fillColor=none;spacingLeft=4;spacingRight=4;overflow=hidden;rotatable=0;points=[[0,0.5],[1,0.5]];portConstraint=eastwest;fontSize=12;whiteSpace=wrap;html=1;" parent="fyEiF3MmVAeKFcar93-F-17" vertex="1">
          <mxGeometry y="86" width="160" height="30" as="geometry" />
        </mxCell>
        <mxCell id="fyEiF3MmVAeKFcar93-F-20" value="Id_Группа" style="text;strokeColor=none;fillColor=none;spacingLeft=4;spacingRight=4;overflow=hidden;rotatable=0;points=[[0,0.5],[1,0.5]];portConstraint=eastwest;fontSize=12;whiteSpace=wrap;html=1;" parent="fyEiF3MmVAeKFcar93-F-17" vertex="1">
          <mxGeometry y="116" width="160" height="30" as="geometry" />
        </mxCell>
        <mxCell id="fyEiF3MmVAeKFcar93-F-21" value="Пол" style="text;strokeColor=none;fillColor=none;spacingLeft=4;spacingRight=4;overflow=hidden;rotatable=0;points=[[0,0.5],[1,0.5]];portConstraint=eastwest;fontSize=12;whiteSpace=wrap;html=1;" parent="fyEiF3MmVAeKFcar93-F-17" vertex="1">
          <mxGeometry y="146" width="160" height="30" as="geometry" />
        </mxCell>
        <mxCell id="fyEiF3MmVAeKFcar93-F-23" value="Группы" style="swimlane;fontStyle=0;childLayout=stackLayout;horizontal=1;startSize=26;horizontalStack=0;resizeParent=1;resizeParentMax=0;resizeLast=0;collapsible=1;marginBottom=0;align=center;fontSize=14;" parent="1" vertex="1">
          <mxGeometry x="360" y="250" width="160" height="176" as="geometry" />
        </mxCell>
        <mxCell id="fyEiF3MmVAeKFcar93-F-24" value="id&lt;br&gt;" style="text;strokeColor=none;fillColor=none;spacingLeft=4;spacingRight=4;overflow=hidden;rotatable=0;points=[[0,0.5],[1,0.5]];portConstraint=eastwest;fontSize=12;whiteSpace=wrap;html=1;" parent="fyEiF3MmVAeKFcar93-F-23" vertex="1">
          <mxGeometry y="26" width="160" height="30" as="geometry" />
        </mxCell>
        <mxCell id="fyEiF3MmVAeKFcar93-F-25" value="Название" style="text;strokeColor=none;fillColor=none;spacingLeft=4;spacingRight=4;overflow=hidden;rotatable=0;points=[[0,0.5],[1,0.5]];portConstraint=eastwest;fontSize=12;whiteSpace=wrap;html=1;" parent="fyEiF3MmVAeKFcar93-F-23" vertex="1">
          <mxGeometry y="56" width="160" height="30" as="geometry" />
        </mxCell>
        <mxCell id="fyEiF3MmVAeKFcar93-F-26" value="id_Направление" style="text;strokeColor=none;fillColor=none;spacingLeft=4;spacingRight=4;overflow=hidden;rotatable=0;points=[[0,0.5],[1,0.5]];portConstraint=eastwest;fontSize=12;whiteSpace=wrap;html=1;" parent="fyEiF3MmVAeKFcar93-F-23" vertex="1">
          <mxGeometry y="86" width="160" height="30" as="geometry" />
        </mxCell>
        <mxCell id="fyEiF3MmVAeKFcar93-F-27" value="id_Преподаватель" style="text;strokeColor=none;fillColor=none;spacingLeft=4;spacingRight=4;overflow=hidden;rotatable=0;points=[[0,0.5],[1,0.5]];portConstraint=eastwest;fontSize=12;whiteSpace=wrap;html=1;" parent="fyEiF3MmVAeKFcar93-F-23" vertex="1">
          <mxGeometry y="116" width="160" height="30" as="geometry" />
        </mxCell>
        <mxCell id="fyEiF3MmVAeKFcar93-F-28" value="id_Формат обучения" style="text;strokeColor=none;fillColor=none;spacingLeft=4;spacingRight=4;overflow=hidden;rotatable=0;points=[[0,0.5],[1,0.5]];portConstraint=eastwest;fontSize=12;whiteSpace=wrap;html=1;" parent="fyEiF3MmVAeKFcar93-F-23" vertex="1">
          <mxGeometry y="146" width="160" height="30" as="geometry" />
        </mxCell>
        <mxCell id="fyEiF3MmVAeKFcar93-F-29" value="" style="edgeStyle=entityRelationEdgeStyle;fontSize=12;html=1;endArrow=ERzeroToMany;endFill=1;rounded=0;entryX=1;entryY=0.5;entryDx=0;entryDy=0;exitX=0;exitY=0.5;exitDx=0;exitDy=0;" parent="1" source="fyEiF3MmVAeKFcar93-F-24" target="fyEiF3MmVAeKFcar93-F-20" edge="1">
          <mxGeometry width="100" height="100" relative="1" as="geometry">
            <mxPoint x="590" y="880" as="sourcePoint" />
            <mxPoint x="690" y="780" as="targetPoint" />
            <Array as="points">
              <mxPoint x="300" y="900" />
              <mxPoint x="300" y="870" />
            </Array>
          </mxGeometry>
        </mxCell>
        <mxCell id="fyEiF3MmVAeKFcar93-F-30" value="Направления" style="swimlane;fontStyle=0;childLayout=stackLayout;horizontal=1;startSize=26;horizontalStack=0;resizeParent=1;resizeParentMax=0;resizeLast=0;collapsible=1;marginBottom=0;align=center;fontSize=14;" parent="1" vertex="1">
          <mxGeometry x="1000" y="422" width="160" height="116" as="geometry" />
        </mxCell>
        <mxCell id="fyEiF3MmVAeKFcar93-F-31" value="id&lt;br&gt;&lt;br&gt;" style="text;strokeColor=none;fillColor=none;spacingLeft=4;spacingRight=4;overflow=hidden;rotatable=0;points=[[0,0.5],[1,0.5]];portConstraint=eastwest;fontSize=12;whiteSpace=wrap;html=1;" parent="fyEiF3MmVAeKFcar93-F-30" vertex="1">
          <mxGeometry y="26" width="160" height="30" as="geometry" />
        </mxCell>
        <mxCell id="fyEiF3MmVAeKFcar93-F-32" value="Название" style="text;strokeColor=none;fillColor=none;spacingLeft=4;spacingRight=4;overflow=hidden;rotatable=0;points=[[0,0.5],[1,0.5]];portConstraint=eastwest;fontSize=12;whiteSpace=wrap;html=1;" parent="fyEiF3MmVAeKFcar93-F-30" vertex="1">
          <mxGeometry y="56" width="160" height="30" as="geometry" />
        </mxCell>
        <mxCell id="fyEiF3MmVAeKFcar93-F-33" value="id_Язык" style="text;strokeColor=none;fillColor=none;spacingLeft=4;spacingRight=4;overflow=hidden;rotatable=0;points=[[0,0.5],[1,0.5]];portConstraint=eastwest;fontSize=12;whiteSpace=wrap;html=1;" parent="fyEiF3MmVAeKFcar93-F-30" vertex="1">
          <mxGeometry y="86" width="160" height="30" as="geometry" />
        </mxCell>
        <mxCell id="fyEiF3MmVAeKFcar93-F-34" value="" style="edgeStyle=entityRelationEdgeStyle;fontSize=12;html=1;endArrow=ERzeroToMany;endFill=1;rounded=0;exitX=0;exitY=0.5;exitDx=0;exitDy=0;entryX=1.025;entryY=0.267;entryDx=0;entryDy=0;entryPerimeter=0;" parent="1" source="fyEiF3MmVAeKFcar93-F-31" target="fyEiF3MmVAeKFcar93-F-26" edge="1">
          <mxGeometry width="100" height="100" relative="1" as="geometry">
            <mxPoint x="590" y="880" as="sourcePoint" />
            <mxPoint x="690" y="780" as="targetPoint" />
            <Array as="points">
              <mxPoint x="670" y="780" />
            </Array>
          </mxGeometry>
        </mxCell>
        <mxCell id="fyEiF3MmVAeKFcar93-F-41" value="" style="edgeStyle=entityRelationEdgeStyle;fontSize=12;html=1;endArrow=ERzeroToMany;endFill=1;rounded=0;exitX=0;exitY=0.5;exitDx=0;exitDy=0;entryX=1;entryY=0.5;entryDx=0;entryDy=0;" parent="1" source="fyEiF3MmVAeKFcar93-F-36" target="fyEiF3MmVAeKFcar93-F-27" edge="1">
          <mxGeometry width="100" height="100" relative="1" as="geometry">
            <mxPoint x="590" y="1080" as="sourcePoint" />
            <mxPoint x="690" y="980" as="targetPoint" />
            <Array as="points">
              <mxPoint x="640" y="1020" />
            </Array>
          </mxGeometry>
        </mxCell>
        <mxCell id="fyEiF3MmVAeKFcar93-F-42" value="Форматы обучения" style="swimlane;fontStyle=0;childLayout=stackLayout;horizontal=1;startSize=26;horizontalStack=0;resizeParent=1;resizeParentMax=0;resizeLast=0;collapsible=1;marginBottom=0;align=center;fontSize=14;" parent="1" vertex="1">
          <mxGeometry x="540" y="860" width="160" height="86" as="geometry" />
        </mxCell>
        <mxCell id="fyEiF3MmVAeKFcar93-F-43" value="id&lt;br&gt;" style="text;strokeColor=none;fillColor=none;spacingLeft=4;spacingRight=4;overflow=hidden;rotatable=0;points=[[0,0.5],[1,0.5]];portConstraint=eastwest;fontSize=12;whiteSpace=wrap;html=1;" parent="fyEiF3MmVAeKFcar93-F-42" vertex="1">
          <mxGeometry y="26" width="160" height="30" as="geometry" />
        </mxCell>
        <mxCell id="fyEiF3MmVAeKFcar93-F-46" value="Форма обучения&lt;br&gt;" style="text;strokeColor=none;fillColor=none;spacingLeft=4;spacingRight=4;overflow=hidden;rotatable=0;points=[[0,0.5],[1,0.5]];portConstraint=eastwest;fontSize=12;whiteSpace=wrap;html=1;" parent="fyEiF3MmVAeKFcar93-F-42" vertex="1">
          <mxGeometry y="56" width="160" height="30" as="geometry" />
        </mxCell>
        <mxCell id="fyEiF3MmVAeKFcar93-F-47" value="" style="edgeStyle=entityRelationEdgeStyle;fontSize=12;html=1;endArrow=ERzeroToMany;endFill=1;rounded=0;exitX=0;exitY=0.5;exitDx=0;exitDy=0;entryX=1;entryY=0.5;entryDx=0;entryDy=0;" parent="1" source="fyEiF3MmVAeKFcar93-F-43" target="fyEiF3MmVAeKFcar93-F-28" edge="1">
          <mxGeometry width="100" height="100" relative="1" as="geometry">
            <mxPoint x="590" y="950" as="sourcePoint" />
            <mxPoint x="690" y="850" as="targetPoint" />
            <Array as="points">
              <mxPoint x="550" y="1080" />
            </Array>
          </mxGeometry>
        </mxCell>
        <mxCell id="fyEiF3MmVAeKFcar93-F-48" value="Расписание" style="swimlane;fontStyle=0;childLayout=stackLayout;horizontal=1;startSize=26;horizontalStack=0;resizeParent=1;resizeParentMax=0;resizeLast=0;collapsible=1;marginBottom=0;align=center;fontSize=14;" parent="1" vertex="1">
          <mxGeometry x="1020" y="890" width="160" height="146" as="geometry" />
        </mxCell>
        <mxCell id="fyEiF3MmVAeKFcar93-F-49" value="id&lt;br&gt;" style="text;strokeColor=none;fillColor=none;spacingLeft=4;spacingRight=4;overflow=hidden;rotatable=0;points=[[0,0.5],[1,0.5]];portConstraint=eastwest;fontSize=12;whiteSpace=wrap;html=1;" parent="fyEiF3MmVAeKFcar93-F-48" vertex="1">
          <mxGeometry y="26" width="160" height="30" as="geometry" />
        </mxCell>
        <mxCell id="fyEiF3MmVAeKFcar93-F-50" value="id_Группа" style="text;strokeColor=none;fillColor=none;spacingLeft=4;spacingRight=4;overflow=hidden;rotatable=0;points=[[0,0.5],[1,0.5]];portConstraint=eastwest;fontSize=12;whiteSpace=wrap;html=1;" parent="fyEiF3MmVAeKFcar93-F-48" vertex="1">
          <mxGeometry y="56" width="160" height="30" as="geometry" />
        </mxCell>
        <mxCell id="fyEiF3MmVAeKFcar93-F-53" value="Преподаватель&lt;br&gt;" style="text;strokeColor=none;fillColor=none;spacingLeft=4;spacingRight=4;overflow=hidden;rotatable=0;points=[[0,0.5],[1,0.5]];portConstraint=eastwest;fontSize=12;whiteSpace=wrap;html=1;" parent="fyEiF3MmVAeKFcar93-F-48" vertex="1">
          <mxGeometry y="86" width="160" height="30" as="geometry" />
        </mxCell>
        <mxCell id="fyEiF3MmVAeKFcar93-F-51" value="Id_Форма обучения" style="text;strokeColor=none;fillColor=none;spacingLeft=4;spacingRight=4;overflow=hidden;rotatable=0;points=[[0,0.5],[1,0.5]];portConstraint=eastwest;fontSize=12;whiteSpace=wrap;html=1;" parent="fyEiF3MmVAeKFcar93-F-48" vertex="1">
          <mxGeometry y="116" width="160" height="30" as="geometry" />
        </mxCell>
        <mxCell id="fyEiF3MmVAeKFcar93-F-54" value="" style="edgeStyle=entityRelationEdgeStyle;fontSize=12;html=1;endArrow=ERzeroToMany;endFill=1;rounded=0;exitX=1;exitY=0.5;exitDx=0;exitDy=0;entryX=0;entryY=0.5;entryDx=0;entryDy=0;" parent="1" source="fyEiF3MmVAeKFcar93-F-35" target="fyEiF3MmVAeKFcar93-F-50" edge="1">
          <mxGeometry width="100" height="100" relative="1" as="geometry">
            <mxPoint x="590" y="750" as="sourcePoint" />
            <mxPoint x="690" y="650" as="targetPoint" />
          </mxGeometry>
        </mxCell>
        <mxCell id="fyEiF3MmVAeKFcar93-F-56" value="" style="edgeStyle=entityRelationEdgeStyle;fontSize=12;html=1;endArrow=ERzeroToMany;endFill=1;rounded=0;entryX=0;entryY=0.5;entryDx=0;entryDy=0;" parent="1" source="fyEiF3MmVAeKFcar93-F-46" target="fyEiF3MmVAeKFcar93-F-51" edge="1">
          <mxGeometry width="100" height="100" relative="1" as="geometry">
            <mxPoint x="590" y="850" as="sourcePoint" />
            <mxPoint x="690" y="750" as="targetPoint" />
          </mxGeometry>
        </mxCell>
        <mxCell id="fyEiF3MmVAeKFcar93-F-57" value="Способы оплаты" style="swimlane;fontStyle=0;childLayout=stackLayout;horizontal=1;startSize=26;horizontalStack=0;resizeParent=1;resizeParentMax=0;resizeLast=0;collapsible=1;marginBottom=0;align=center;fontSize=14;" parent="1" vertex="1">
          <mxGeometry x="-170" y="774" width="160" height="86" as="geometry" />
        </mxCell>
        <mxCell id="fyEiF3MmVAeKFcar93-F-58" value="id" style="text;strokeColor=none;fillColor=none;spacingLeft=4;spacingRight=4;overflow=hidden;rotatable=0;points=[[0,0.5],[1,0.5]];portConstraint=eastwest;fontSize=12;whiteSpace=wrap;html=1;" parent="fyEiF3MmVAeKFcar93-F-57" vertex="1">
          <mxGeometry y="26" width="160" height="30" as="geometry" />
        </mxCell>
        <mxCell id="fyEiF3MmVAeKFcar93-F-59" value="Название" style="text;strokeColor=none;fillColor=none;spacingLeft=4;spacingRight=4;overflow=hidden;rotatable=0;points=[[0,0.5],[1,0.5]];portConstraint=eastwest;fontSize=12;whiteSpace=wrap;html=1;" parent="fyEiF3MmVAeKFcar93-F-57" vertex="1">
          <mxGeometry y="56" width="160" height="30" as="geometry" />
        </mxCell>
        <mxCell id="fyEiF3MmVAeKFcar93-F-61" value="Продажа&lt;br&gt;" style="rounded=0;whiteSpace=wrap;html=1;" parent="1" vertex="1">
          <mxGeometry x="1580" y="376" width="120" height="60" as="geometry" />
        </mxCell>
        <mxCell id="fyEiF3MmVAeKFcar93-F-63" value="Продажа" style="swimlane;fontStyle=0;childLayout=stackLayout;horizontal=1;startSize=26;horizontalStack=0;resizeParent=1;resizeParentMax=0;resizeLast=0;collapsible=1;marginBottom=0;align=center;fontSize=14;" parent="1" vertex="1">
          <mxGeometry x="110" y="520" width="160" height="176" as="geometry" />
        </mxCell>
        <mxCell id="fyEiF3MmVAeKFcar93-F-64" value="id" style="text;strokeColor=none;fillColor=none;spacingLeft=4;spacingRight=4;overflow=hidden;rotatable=0;points=[[0,0.5],[1,0.5]];portConstraint=eastwest;fontSize=12;whiteSpace=wrap;html=1;" parent="fyEiF3MmVAeKFcar93-F-63" vertex="1">
          <mxGeometry y="26" width="160" height="30" as="geometry" />
        </mxCell>
        <mxCell id="fyEiF3MmVAeKFcar93-F-66" value="Id_ФИО" style="text;strokeColor=none;fillColor=none;spacingLeft=4;spacingRight=4;overflow=hidden;rotatable=0;points=[[0,0.5],[1,0.5]];portConstraint=eastwest;fontSize=12;whiteSpace=wrap;html=1;" parent="fyEiF3MmVAeKFcar93-F-63" vertex="1">
          <mxGeometry y="56" width="160" height="30" as="geometry" />
        </mxCell>
        <mxCell id="fyEiF3MmVAeKFcar93-F-67" value="Id_Группа" style="text;strokeColor=none;fillColor=none;spacingLeft=4;spacingRight=4;overflow=hidden;rotatable=0;points=[[0,0.5],[1,0.5]];portConstraint=eastwest;fontSize=12;whiteSpace=wrap;html=1;" parent="fyEiF3MmVAeKFcar93-F-63" vertex="1">
          <mxGeometry y="86" width="160" height="30" as="geometry" />
        </mxCell>
        <mxCell id="fyEiF3MmVAeKFcar93-F-68" value="Направление" style="text;strokeColor=none;fillColor=none;spacingLeft=4;spacingRight=4;overflow=hidden;rotatable=0;points=[[0,0.5],[1,0.5]];portConstraint=eastwest;fontSize=12;whiteSpace=wrap;html=1;" parent="fyEiF3MmVAeKFcar93-F-63" vertex="1">
          <mxGeometry y="116" width="160" height="30" as="geometry" />
        </mxCell>
        <mxCell id="fyEiF3MmVAeKFcar93-F-69" value="id_Способ оплаты" style="text;strokeColor=none;fillColor=none;spacingLeft=4;spacingRight=4;overflow=hidden;rotatable=0;points=[[0,0.5],[1,0.5]];portConstraint=eastwest;fontSize=12;whiteSpace=wrap;html=1;" parent="fyEiF3MmVAeKFcar93-F-63" vertex="1">
          <mxGeometry y="146" width="160" height="30" as="geometry" />
        </mxCell>
        <mxCell id="fyEiF3MmVAeKFcar93-F-75" value="" style="edgeStyle=entityRelationEdgeStyle;fontSize=12;html=1;endArrow=ERzeroToMany;endFill=1;rounded=0;exitX=0;exitY=0.5;exitDx=0;exitDy=0;entryX=1;entryY=0.5;entryDx=0;entryDy=0;" parent="1" source="fyEiF3MmVAeKFcar93-F-69" target="fyEiF3MmVAeKFcar93-F-58" edge="1">
          <mxGeometry width="100" height="100" relative="1" as="geometry">
            <mxPoint x="570" y="1100" as="sourcePoint" />
            <mxPoint x="670" y="1000" as="targetPoint" />
          </mxGeometry>
        </mxCell>
        <mxCell id="fyEiF3MmVAeKFcar93-F-76" value="" style="edgeStyle=entityRelationEdgeStyle;fontSize=12;html=1;endArrow=ERzeroToMany;endFill=1;rounded=0;exitX=1;exitY=0.5;exitDx=0;exitDy=0;entryX=0;entryY=0.5;entryDx=0;entryDy=0;" parent="1" source="fyEiF3MmVAeKFcar93-F-67" target="fyEiF3MmVAeKFcar93-F-24" edge="1">
          <mxGeometry width="100" height="100" relative="1" as="geometry">
            <mxPoint x="570" y="1100" as="sourcePoint" />
            <mxPoint x="670" y="1000" as="targetPoint" />
          </mxGeometry>
        </mxCell>
        <mxCell id="fyEiF3MmVAeKFcar93-F-77" value="" style="edgeStyle=entityRelationEdgeStyle;fontSize=12;html=1;endArrow=ERzeroToMany;endFill=1;rounded=0;exitX=1;exitY=0.5;exitDx=0;exitDy=0;entryX=0;entryY=0.5;entryDx=0;entryDy=0;" parent="1" source="fyEiF3MmVAeKFcar93-F-18" target="fyEiF3MmVAeKFcar93-F-64" edge="1">
          <mxGeometry width="100" height="100" relative="1" as="geometry">
            <mxPoint x="570" y="1100" as="sourcePoint" />
            <mxPoint x="670" y="1000" as="targetPoint" />
            <Array as="points">
              <mxPoint x="620" y="1050" />
            </Array>
          </mxGeometry>
        </mxCell>
        <mxCell id="D6yrI3v9REmSvCYI_-wY-1" value="Уровни знания" style="swimlane;fontStyle=0;childLayout=stackLayout;horizontal=1;startSize=26;horizontalStack=0;resizeParent=1;resizeParentMax=0;resizeLast=0;collapsible=1;marginBottom=0;align=center;fontSize=14;" parent="1" vertex="1">
          <mxGeometry x="1250" y="550" width="150" height="86" as="geometry">
            <mxRectangle x="1250" y="550" width="140" height="30" as="alternateBounds" />
          </mxGeometry>
        </mxCell>
        <mxCell id="D6yrI3v9REmSvCYI_-wY-2" value="id" style="text;strokeColor=none;fillColor=none;spacingLeft=4;spacingRight=4;overflow=hidden;rotatable=0;points=[[0,0.5],[1,0.5]];portConstraint=eastwest;fontSize=12;whiteSpace=wrap;html=1;" parent="D6yrI3v9REmSvCYI_-wY-1" vertex="1">
          <mxGeometry y="26" width="150" height="30" as="geometry" />
        </mxCell>
        <mxCell id="D6yrI3v9REmSvCYI_-wY-3" value="Язык" style="text;strokeColor=none;fillColor=none;spacingLeft=4;spacingRight=4;overflow=hidden;rotatable=0;points=[[0,0.5],[1,0.5]];portConstraint=eastwest;fontSize=12;whiteSpace=wrap;html=1;" parent="D6yrI3v9REmSvCYI_-wY-1" vertex="1">
          <mxGeometry y="56" width="150" height="30" as="geometry" />
        </mxCell>
        <mxCell id="D6yrI3v9REmSvCYI_-wY-8" value="" style="edgeStyle=entityRelationEdgeStyle;fontSize=12;html=1;endArrow=ERzeroToMany;endFill=1;rounded=0;exitX=0.02;exitY=0.3;exitDx=0;exitDy=0;exitPerimeter=0;" parent="1" source="D6yrI3v9REmSvCYI_-wY-3" target="fyEiF3MmVAeKFcar93-F-33" edge="1">
          <mxGeometry width="100" height="100" relative="1" as="geometry">
            <mxPoint x="970" y="780" as="sourcePoint" />
            <mxPoint x="1130" y="810" as="targetPoint" />
            <Array as="points">
              <mxPoint x="1040" y="790" />
              <mxPoint x="1030" y="800" />
              <mxPoint x="960" y="660" />
            </Array>
          </mxGeometry>
        </mxCell>
        <mxCell id="D6yrI3v9REmSvCYI_-wY-11" value="Курсы" style="swimlane;fontStyle=0;childLayout=stackLayout;horizontal=1;startSize=26;horizontalStack=0;resizeParent=1;resizeParentMax=0;resizeLast=0;collapsible=1;marginBottom=0;align=center;fontSize=14;" parent="1" vertex="1">
          <mxGeometry x="1020" y="112" width="160" height="176" as="geometry" />
        </mxCell>
        <mxCell id="D6yrI3v9REmSvCYI_-wY-12" value="id&lt;br&gt;" style="text;strokeColor=none;fillColor=none;spacingLeft=4;spacingRight=4;overflow=hidden;rotatable=0;points=[[0,0.5],[1,0.5]];portConstraint=eastwest;fontSize=12;whiteSpace=wrap;html=1;" parent="D6yrI3v9REmSvCYI_-wY-11" vertex="1">
          <mxGeometry y="26" width="160" height="30" as="geometry" />
        </mxCell>
        <mxCell id="D6yrI3v9REmSvCYI_-wY-13" value="Название" style="text;strokeColor=none;fillColor=none;spacingLeft=4;spacingRight=4;overflow=hidden;rotatable=0;points=[[0,0.5],[1,0.5]];portConstraint=eastwest;fontSize=12;whiteSpace=wrap;html=1;" parent="D6yrI3v9REmSvCYI_-wY-11" vertex="1">
          <mxGeometry y="56" width="160" height="30" as="geometry" />
        </mxCell>
        <mxCell id="D6yrI3v9REmSvCYI_-wY-14" value="Id_Направление" style="text;strokeColor=none;fillColor=none;spacingLeft=4;spacingRight=4;overflow=hidden;rotatable=0;points=[[0,0.5],[1,0.5]];portConstraint=eastwest;fontSize=12;whiteSpace=wrap;html=1;" parent="D6yrI3v9REmSvCYI_-wY-11" vertex="1">
          <mxGeometry y="86" width="160" height="30" as="geometry" />
        </mxCell>
        <mxCell id="D6yrI3v9REmSvCYI_-wY-15" value="id_Преподаватель" style="text;strokeColor=none;fillColor=none;spacingLeft=4;spacingRight=4;overflow=hidden;rotatable=0;points=[[0,0.5],[1,0.5]];portConstraint=eastwest;fontSize=12;whiteSpace=wrap;html=1;" parent="D6yrI3v9REmSvCYI_-wY-11" vertex="1">
          <mxGeometry y="116" width="160" height="30" as="geometry" />
        </mxCell>
        <mxCell id="D6yrI3v9REmSvCYI_-wY-24" value="id_Время" style="text;strokeColor=none;fillColor=none;spacingLeft=4;spacingRight=4;overflow=hidden;rotatable=0;points=[[0,0.5],[1,0.5]];portConstraint=eastwest;fontSize=12;whiteSpace=wrap;html=1;" parent="D6yrI3v9REmSvCYI_-wY-11" vertex="1">
          <mxGeometry y="146" width="160" height="30" as="geometry" />
        </mxCell>
        <mxCell id="D6yrI3v9REmSvCYI_-wY-16" value="" style="edgeStyle=entityRelationEdgeStyle;fontSize=12;html=1;endArrow=ERzeroToMany;endFill=1;rounded=0;exitX=0;exitY=0.5;exitDx=0;exitDy=0;entryX=1;entryY=0.5;entryDx=0;entryDy=0;" parent="1" source="D6yrI3v9REmSvCYI_-wY-15" target="fyEiF3MmVAeKFcar93-F-36" edge="1">
          <mxGeometry width="100" height="100" relative="1" as="geometry">
            <mxPoint x="770" y="720" as="sourcePoint" />
            <mxPoint x="870" y="620" as="targetPoint" />
          </mxGeometry>
        </mxCell>
        <mxCell id="D6yrI3v9REmSvCYI_-wY-18" value="" style="edgeStyle=entityRelationEdgeStyle;fontSize=12;html=1;endArrow=ERzeroToMany;endFill=1;rounded=0;entryX=1;entryY=0.5;entryDx=0;entryDy=0;" parent="1" source="D6yrI3v9REmSvCYI_-wY-14" target="fyEiF3MmVAeKFcar93-F-31" edge="1">
          <mxGeometry width="100" height="100" relative="1" as="geometry">
            <mxPoint x="780" y="710" as="sourcePoint" />
            <mxPoint x="880" y="610" as="targetPoint" />
          </mxGeometry>
        </mxCell>
        <mxCell id="D6yrI3v9REmSvCYI_-wY-19" value="Время" style="swimlane;fontStyle=0;childLayout=stackLayout;horizontal=1;startSize=26;horizontalStack=0;resizeParent=1;resizeParentMax=0;resizeLast=0;collapsible=1;marginBottom=0;align=center;fontSize=14;" parent="1" vertex="1">
          <mxGeometry x="650" y="180" width="160" height="86" as="geometry" />
        </mxCell>
        <mxCell id="D6yrI3v9REmSvCYI_-wY-20" value="id" style="text;strokeColor=none;fillColor=none;spacingLeft=4;spacingRight=4;overflow=hidden;rotatable=0;points=[[0,0.5],[1,0.5]];portConstraint=eastwest;fontSize=12;whiteSpace=wrap;html=1;" parent="D6yrI3v9REmSvCYI_-wY-19" vertex="1">
          <mxGeometry y="26" width="160" height="30" as="geometry" />
        </mxCell>
        <mxCell id="D6yrI3v9REmSvCYI_-wY-21" value="Название" style="text;strokeColor=none;fillColor=none;spacingLeft=4;spacingRight=4;overflow=hidden;rotatable=0;points=[[0,0.5],[1,0.5]];portConstraint=eastwest;fontSize=12;whiteSpace=wrap;html=1;" parent="D6yrI3v9REmSvCYI_-wY-19" vertex="1">
          <mxGeometry y="56" width="160" height="30" as="geometry" />
        </mxCell>
        <mxCell id="D6yrI3v9REmSvCYI_-wY-23" value="" style="edgeStyle=entityRelationEdgeStyle;fontSize=12;html=1;endArrow=ERzeroToMany;endFill=1;rounded=0;entryX=0;entryY=0.5;entryDx=0;entryDy=0;exitX=1;exitY=0.5;exitDx=0;exitDy=0;" parent="1" source="D6yrI3v9REmSvCYI_-wY-20" target="D6yrI3v9REmSvCYI_-wY-24" edge="1">
          <mxGeometry width="100" height="100" relative="1" as="geometry">
            <mxPoint x="980" y="500" as="sourcePoint" />
            <mxPoint x="1080" y="400" as="targetPoint" />
            <Array as="points">
              <mxPoint x="890" y="450" />
              <mxPoint x="890" y="450" />
            </Array>
          </mxGeometry>
        </mxCell>
        <mxCell id="D6yrI3v9REmSvCYI_-wY-25" style="edgeStyle=none;rounded=0;orthogonalLoop=1;jettySize=auto;html=1;exitX=0.5;exitY=0;exitDx=0;exitDy=0;" parent="1" source="fyEiF3MmVAeKFcar93-F-63" target="fyEiF3MmVAeKFcar93-F-63" edge="1">
          <mxGeometry relative="1" as="geometry" />
        </mxCell>
        <mxCell id="D6yrI3v9REmSvCYI_-wY-26" value="Языки" style="swimlane;fontStyle=0;childLayout=stackLayout;horizontal=1;startSize=26;horizontalStack=0;resizeParent=1;resizeParentMax=0;resizeLast=0;collapsible=1;marginBottom=0;align=center;fontSize=14;" parent="1" vertex="1">
          <mxGeometry x="630" y="434" width="160" height="86" as="geometry" />
        </mxCell>
        <mxCell id="D6yrI3v9REmSvCYI_-wY-27" value="id" style="text;strokeColor=none;fillColor=none;spacingLeft=4;spacingRight=4;overflow=hidden;rotatable=0;points=[[0,0.5],[1,0.5]];portConstraint=eastwest;fontSize=12;whiteSpace=wrap;html=1;" parent="D6yrI3v9REmSvCYI_-wY-26" vertex="1">
          <mxGeometry y="26" width="160" height="30" as="geometry" />
        </mxCell>
        <mxCell id="D6yrI3v9REmSvCYI_-wY-28" value="Название" style="text;strokeColor=none;fillColor=none;spacingLeft=4;spacingRight=4;overflow=hidden;rotatable=0;points=[[0,0.5],[1,0.5]];portConstraint=eastwest;fontSize=12;whiteSpace=wrap;html=1;" parent="D6yrI3v9REmSvCYI_-wY-26" vertex="1">
          <mxGeometry y="56" width="160" height="30" as="geometry" />
        </mxCell>
        <mxCell id="D6yrI3v9REmSvCYI_-wY-30" value="" style="edgeStyle=entityRelationEdgeStyle;fontSize=12;html=1;endArrow=ERzeroToMany;endFill=1;rounded=0;exitX=1;exitY=0.5;exitDx=0;exitDy=0;" parent="1" source="D6yrI3v9REmSvCYI_-wY-27" edge="1">
          <mxGeometry width="100" height="100" relative="1" as="geometry">
            <mxPoint x="700" y="691" as="sourcePoint" />
            <mxPoint x="1000" y="520" as="targetPoint" />
            <Array as="points">
              <mxPoint x="980" y="540" />
            </Array>
          </mxGeometry>
        </mxCell>
        <mxCell id="D6yrI3v9REmSvCYI_-wY-31" value="" style="edgeStyle=entityRelationEdgeStyle;fontSize=12;html=1;endArrow=ERzeroToMany;endFill=1;rounded=0;exitX=1;exitY=0.5;exitDx=0;exitDy=0;entryX=0;entryY=0.5;entryDx=0;entryDy=0;" parent="1" source="fyEiF3MmVAeKFcar93-F-24" target="fyEiF3MmVAeKFcar93-F-35" edge="1">
          <mxGeometry width="100" height="100" relative="1" as="geometry">
            <mxPoint x="520" y="291" as="sourcePoint" />
            <mxPoint x="1020" y="961" as="targetPoint" />
          </mxGeometry>
        </mxCell>
        <mxCell id="fyEiF3MmVAeKFcar93-F-35" value="Преподаватели" style="swimlane;fontStyle=0;childLayout=stackLayout;horizontal=1;startSize=26;horizontalStack=0;resizeParent=1;resizeParentMax=0;resizeLast=0;collapsible=1;marginBottom=0;align=center;fontSize=14;" parent="1" vertex="1">
          <mxGeometry x="620" y="550" width="160" height="116" as="geometry" />
        </mxCell>
        <mxCell id="fyEiF3MmVAeKFcar93-F-36" value="id" style="text;strokeColor=none;fillColor=none;spacingLeft=4;spacingRight=4;overflow=hidden;rotatable=0;points=[[0,0.5],[1,0.5]];portConstraint=eastwest;fontSize=12;whiteSpace=wrap;html=1;" parent="fyEiF3MmVAeKFcar93-F-35" vertex="1">
          <mxGeometry y="26" width="160" height="30" as="geometry" />
        </mxCell>
        <mxCell id="fyEiF3MmVAeKFcar93-F-38" value="ФИО" style="text;strokeColor=none;fillColor=none;spacingLeft=4;spacingRight=4;overflow=hidden;rotatable=0;points=[[0,0.5],[1,0.5]];portConstraint=eastwest;fontSize=12;whiteSpace=wrap;html=1;" parent="fyEiF3MmVAeKFcar93-F-35" vertex="1">
          <mxGeometry y="56" width="160" height="30" as="geometry" />
        </mxCell>
        <mxCell id="fyEiF3MmVAeKFcar93-F-39" value="Дата рождения" style="text;strokeColor=none;fillColor=none;spacingLeft=4;spacingRight=4;overflow=hidden;rotatable=0;points=[[0,0.5],[1,0.5]];portConstraint=eastwest;fontSize=12;whiteSpace=wrap;html=1;" parent="fyEiF3MmVAeKFcar93-F-35" vertex="1">
          <mxGeometry y="86" width="160" height="30" as="geometry" />
        </mxCell>
        <mxCell id="D6yrI3v9REmSvCYI_-wY-32" value="Расписание&lt;br&gt;" style="rounded=0;whiteSpace=wrap;html=1;" parent="1" vertex="1">
          <mxGeometry x="1580" y="450" width="120" height="60" as="geometry" />
        </mxCell>
        <mxCell id="D6yrI3v9REmSvCYI_-wY-33" value="Курсы" style="rounded=0;whiteSpace=wrap;html=1;" parent="1" vertex="1">
          <mxGeometry x="1450" y="530" width="120" height="60" as="geometry" />
        </mxCell>
        <mxCell id="D6yrI3v9REmSvCYI_-wY-34" value="Способ оплаты" style="rounded=0;whiteSpace=wrap;html=1;" parent="1" vertex="1">
          <mxGeometry x="1580" y="530" width="120" height="60" as="geometry" />
        </mxCell>
      </root>
    </mxGraphModel>
  </diagram>
</mxfile>
